<svg xmlns:dc="http://purl.org/dc/elements/1.1/" xmlns:sodipodi="http://sodipodi.sourceforge.net/DTD/sodipodi-0.dtd" xmlns:cc="http://creativecommons.org/ns#" xmlns:svg="http://www.w3.org/2000/svg" xmlns:rdf="http://www.w3.org/1999/02/22-rdf-syntax-ns#" xmlns:inkscape="http://www.inkscape.org/namespaces/inkscape" xmlns="http://www.w3.org/2000/svg" xmlns:xlink="http://www.w3.org/1999/xlink" version="1.1" id="Layer_1" inkscape:version="0.48.2 r9819" sodipodi:docname="factory.svg" x="0px" y="0px" width="33px" height="36.643px" viewBox="0 0 33 36.643" enable-background="new 0 0 33 36.643" xml:space="preserve">
<sodipodi:namedview borderopacity="1" pagecolor="#ffffff" inkscape:cx="16.5" bordercolor="#666666" inkscape:cy="18.321501" objecttolerance="10" gridtolerance="10" inkscape:zoom="6.4405204" showgrid="false" guidetolerance="10" id="namedview3228" inkscape:current-layer="Layer_1" inkscape:window-x="-8" inkscape:window-y="-8" inkscape:window-maximized="0" inkscape:window-height="878" inkscape:pageshadow="2" inkscape:pageopacity="0" inkscape:window-width="1600">
	</sodipodi:namedview>
<path d="M22.08,22.612v-6l-9,6h-1v-9h-4v9h-2v-9h-4v9h-2v14h31v-20L22.08,22.612z M9.08,32.612h-5v-5h5V32.612z M19.08,32.612h-5v-5  h5V32.612z"/>
<path id="path3226" inkscape:connector-curvature="0" d="M33.082,4.615c0,6.076-16.658,9.501-19.341,4.99  c-0.844,1.793-3.082,2.531-4.817,1.594c-2.877-1.556-0.732,0.416-3.843,0.416c-2.627,0-3.982-3.264-2.123-5.123  c2.106-2.105,3.359,0.262,5.69-1.294c3.355-2.239,2.605,1.253,6.01-1.665c2.013-1.726,3.877-0.348,6.036-1.459  C24.088,0.326,33.082-2.625,33.082,4.615z"/>
</svg>