<svg xmlns="http://www.w3.org/2000/svg" xmlns:xlink="http://www.w3.org/1999/xlink" version="1.1" id="Layer_1" x="0px" y="0px" width="100px" height="99.173553719px" viewBox="0 0 121.587 120.588" enable-background="new 0 0 121.587 120.588" xml:space="preserve">
<path fill="none" stroke="#000000" stroke-width="3" stroke-miterlimit="10" d="M41.5,102.5c0,3.59-2.91,6.5-6.5,6.5l0,0  c-3.59,0-6.5-2.91-6.5-6.5V39.875l-2.25-1.312c0-1.969,5.098-1.438,8.688-1.438l0,0c3.59,0,8.25-0.531,8.25,1.5L41.5,40.188V102.5z"/>
<path fill="none" stroke="#000000" stroke-width="3" stroke-miterlimit="10" d="M69.5,102.5c0,3.59-2.91,6.5-6.5,6.5l0,0  c-3.59,0-6.5-2.91-6.5-6.5V39.875l-2.25-1.312c0-1.969,5.098-1.438,8.688-1.438l0,0c3.59,0,8.25-0.531,8.25,1.5L69.5,40.188V102.5z"/>
<path fill="none" stroke="#000000" stroke-width="3" stroke-miterlimit="10" d="M99.5,102.5c0,3.59-2.91,6.5-6.5,6.5l0,0  c-3.59,0-6.5-2.91-6.5-6.5V39.875l-2.25-1.312c0-1.969,5.098-1.438,8.688-1.438l0,0c3.59,0,8.25-0.531,8.25,1.5L99.5,40.188V102.5z"/>
<circle fill="none" stroke="#000000" stroke-miterlimit="10" cx="32.749" cy="10.562" r="5.022"/>
<circle fill="none" stroke="#000000" stroke-miterlimit="10" cx="92.581" cy="32.052" r="4.573"/>
<path fill="none" stroke="#000000" stroke-miterlimit="10" d="M90.948,28.521c0,0-1.46,0.365-2.211,2.84  c0,0,0.681,0.146,0.893,0.438c0,0,0.822-1.639,1.89-2.053C91.52,29.746,91.039,28.859,90.948,28.521z"/>
<circle fill="none" stroke="#000000" stroke-miterlimit="10" cx="37.695" cy="29.82" r="3.805"/>
<path fill="none" stroke="#000000" stroke-miterlimit="10" d="M36.338,26.883c0,0-1.215,0.303-1.841,2.362  c0,0,0.566,0.122,0.743,0.364c0,0,0.684-1.363,1.572-1.707C36.812,27.902,36.412,27.164,36.338,26.883z"/>
<circle fill="none" stroke="#000000" stroke-miterlimit="10" cx="31.375" cy="55.5" r="3.125"/>
<path fill="none" stroke="#000000" stroke-miterlimit="10" d="M30.51,53.792c0,0-0.361,0.142-0.547,1.106  c0,0,0.168,0.057,0.221,0.171c0,0,0.203-0.639,0.467-0.8C30.65,54.27,30.531,53.924,30.51,53.792z"/>
<circle fill="none" stroke="#000000" stroke-miterlimit="10" cx="65.375" cy="37.5" r="3.125"/>
<path fill="none" stroke="#000000" stroke-miterlimit="10" d="M64.51,36.792c0,0-0.361,0.142-0.547,1.106  c0,0,0.168,0.057,0.221,0.171c0,0,0.203-0.639,0.467-0.8C64.65,37.27,64.531,36.924,64.51,36.792z"/>
<circle fill="none" stroke="#000000" stroke-miterlimit="10" cx="93.375" cy="73.5" r="3.125"/>
<path fill="none" stroke="#000000" stroke-miterlimit="10" d="M92.51,71.792c0,0-0.361,0.142-0.547,1.106  c0,0,0.168,0.057,0.221,0.171c0,0,0.203-0.639,0.467-0.8C92.65,72.27,92.531,71.924,92.51,71.792z"/>
<line fill="none" stroke="#000000" stroke-width="3" stroke-linecap="round" stroke-miterlimit="10" x1="7" y1="46" x2="114" y2="46"/>
<path fill="#000000" stroke="#FFFFFF" stroke-miterlimit="10" d="M67.5,54.5"/>
<g>
	<path d="M67,55.598c-0.881-0.078-2.072,0.027-3.625,0.027L62.125,56c-3,0-6.125-1.09-6.125,2.5v40.75c0,3.59,2.052,9.65,5.642,9.65   l1.816-0.9c1.458,0,2.646,2.036,3.542-1.125V55.598z"/>
	<path d="M39,63.498c-0.881-0.067-2.072,0.022-3.625,0.022l-1.25,0.319c-3,0-6.125-0.929-6.125,2.129v34.711   c0,3.059,2.052,8.221,5.642,8.221l1.816-0.768c1.458,0,2.646,1.734,3.542-0.957V63.498z"/>
	<path d="M97,74.574c-0.881-0.051-2.072,0.018-3.625,0.018l-1.25,0.24c-3,0-6.125-0.701-6.125,1.61v26.243   c0,2.312,2.052,6.215,5.642,6.215l1.816-0.58c1.458,0,2.646,1.312,3.542-0.725V74.574z"/>
	<path d="M68,55.838v42.174c0.658-3.538,1-7.012,1-8.512v-31C69,56.927,68.688,56.181,68,55.838z"/>
</g>
</svg>