<svg xmlns="http://www.w3.org/2000/svg" xmlns:xlink="http://www.w3.org/1999/xlink" version="1.1" x="0px" y="0px" width="100px" height="100px" viewBox="0 0 100 100" enable-background="new 0 0 100 100" xml:space="preserve">
<g id="Captions">
	<rect x="-606" width="185" height="99"/>
	<rect x="-414" y="-36" width="100" height="30"/>
	<text transform="matrix(1 0 0 1 -348 -19.5)" fill="#000000" font-family="'Helvetica'" font-size="2.4">http://thenounproject.com</text>
	<text transform="matrix(1 0 0 1 -406.834 -24.5)"><tspan x="0" y="0" fill="#000000" font-family="'Helvetica-Bold'" font-size="6.1578">The Noun Project</tspan><tspan x="1.12" y="4.8" fill="#000000" font-family="'Helvetica-Bold'" font-size="4">Icon Template</tspan></text>
	<text transform="matrix(1 0 0 1 -592.5 10.5)" fill="#000000" font-family="'Helvetica-Bold'" font-size="6.1578">Reminders</text>
	<line fill="#000000" stroke="#FFFFFF" stroke-miterlimit="10" x1="-406" y1="-14.5" x2="-396" y2="-14.5"/>
	<line fill="#000000" stroke="#FFFFFF" stroke-miterlimit="10" x1="-593" y1="16.5" x2="-576" y2="16.5"/>
	<g>
		<g>
			<g>
				<rect x="-584.802" y="31.318" fill="#000000" width="8.721" height="8.642"/>
				<path fill="#000000" d="M-578.455,42.312h4.747v-4.703h-4.747V42.312z M-573.266,42.749h-5.63V37.17h5.63V42.749      L-573.266,42.749z M-580.221,44.062h8.279v-8.203h-8.279V44.062L-580.221,44.062z M-571.5,44.5h-9.163v-9.079h9.163V44.5      L-571.5,44.5z"/>
				<polygon fill="#000000" points="-580.149,44.133 -580.292,43.991 -572.013,35.787 -571.871,35.929     "/>
			</g>
		</g>
	</g>
	<rect x="-593" y="58" fill="none" width="35" height="32.5"/>
	<text transform="matrix(1 0 0 1 -593 60.1572)"><tspan x="0" y="0" fill="#000000" font-family="'Helvetica-Bold'" font-size="3">Strokes</tspan><tspan x="0" y="5" fill="#000000" font-family="'Helvetica'" font-size="2.4">Try to keep strokes at 4px</tspan><tspan x="0" y="10" fill="#000000" font-family="'Helvetica'" font-size="2.4">Minimum stroke weight is 2px</tspan><tspan x="0" y="14.5" fill="#000000" font-family="'Helvetica'" font-size="2.4">For thicker strokes use even </tspan><tspan x="0" y="17.5" fill="#000000" font-family="'Helvetica'" font-size="2.4">numbers: 6px, 8px etc.</tspan><tspan x="0" y="22" fill="#000000" font-family="'Helvetica-Bold'" font-size="2.4">Remember to expand strokes </tspan><tspan x="0" y="25" fill="#000000" font-family="'Helvetica-Bold'" font-size="2.4">before saving as an SVG </tspan></text>
	<rect x="-550.5" y="58" fill="none" width="35" height="32.5"/>
	<text transform="matrix(1 0 0 1 -550.5 60.1572)"><tspan x="0" y="0" fill="#000000" font-family="'Helvetica-Bold'" font-size="3">Size</tspan><tspan x="0" y="5" fill="#000000" font-family="'Helvetica'" font-size="2.4">Cannot be wider or taller than </tspan><tspan x="0" y="8.5" fill="#000000" font-family="'Helvetica'" font-size="2.4">100px (artboard size)</tspan><tspan x="0" y="13.5" fill="#000000" font-family="'Helvetica'" font-size="2.4">Scale your icon to fill as much of </tspan><tspan x="0" y="16.5" fill="#000000" font-family="'Helvetica'" font-size="2.4">the artboard as possible</tspan></text>
	<rect x="-508" y="58" fill="none" width="35" height="32.5"/>
	<text transform="matrix(1 0 0 1 -508 60.1572)"><tspan x="0" y="0" fill="#000000" font-family="'Helvetica-Bold'" font-size="3">Ungroup</tspan><tspan x="0" y="5" fill="#000000" font-family="'Helvetica'" font-size="2.4">If your design has more than one </tspan><tspan x="0" y="8" fill="#000000" font-family="'Helvetica'" font-size="2.4">shape, make sure to ungroup</tspan></text>
	<rect x="-464" y="58" fill="none" width="35" height="32.5"/>
	<text transform="matrix(1 0 0 1 -464 60.1572)"><tspan x="0" y="0" fill="#000000" font-family="'Helvetica-Bold'" font-size="3">Save as</tspan><tspan x="0" y="5" fill="#000000" font-family="'Helvetica'" font-size="2.4">Save as .SVG and make sure </tspan><tspan x="0" y="8" fill="#000000" font-family="'Helvetica'" font-size="2.4">&#8220;Use Artboards&#8221; is checked</tspan></text>
	<text transform="matrix(1.0074 0 0 1 -539.542 30.5933)" fill="#000000" font-family="'Helvetica'" font-size="2.5731">100px</text>
	<text transform="matrix(1.0074 0 0 1 -455 39)" fill="#000000" font-family="'Helvetica-Bold'" font-size="5.1462">.SVG</text>
	<rect x="-540.514" y="34.815" fill="#000000" width="10.261" height="10.185"/>
	<rect x="-540.477" y="31.766" fill="#000000" width="0.522" height="2.337"/>
	<rect x="-530.812" y="31.766" fill="#000000" width="0.523" height="2.337"/>
	<rect x="-541" y="32.337" fill="#000000" width="11.233" height="0.572"/>
	<g>
		<rect x="-497.805" y="33.844" fill="#000000" width="10.305" height="10.156"/>
		<rect x="-490.809" y="28.707" fill="#000000" width="3.308" height="3.261"/>
	</g>
	<rect x="-592.5" y="22.5" fill="#000000" stroke="#FFFFFF" stroke-miterlimit="10" width="30" height="30"/>
	<rect x="-550.5" y="22.5" fill="#000000" stroke="#FFFFFF" stroke-miterlimit="10" width="30" height="30"/>
	<rect x="-507.5" y="22.5" fill="#000000" stroke="#FFFFFF" stroke-miterlimit="10" width="30" height="30"/>
	<rect x="-463.5" y="22.5" fill="#000000" stroke="#FFFFFF" stroke-miterlimit="10" width="30" height="30"/>
</g>
<g id="Your_Icon">
	<path d="M-380.255,45.75c1.938-2.509,2.833-5.492,2.758-8.432c0.235-2.393,1.109-4.75,2.686-6.792   c1.578-2.043,3.639-3.483,5.894-4.314c2.864-0.669,5.525-2.287,7.465-4.796c4.474-5.791,3.407-14.113-2.384-18.587   c-3.099-2.395-6.921-3.187-10.492-2.533l0.015-0.059c-7.383,1.219-15.406,6.187-21.506,14.081   c-6.1,7.893-8.883,16.911-8.199,24.363l0.08-0.043c0.271,3.613,2.003,7.103,5.096,9.495   C-393.052,52.606-384.729,51.541-380.255,45.75z M-381.397,26.225c3.366-4.357,6.881-7.283,7.85-6.535   c0.968,0.749-0.977,4.888-4.343,9.245s-6.881,7.283-7.85,6.535C-386.709,34.722-384.765,30.582-381.397,26.225z M-337.66,42.32   c-4.265,1.54-6.666,0.817-10.804,2.522c-3.655,1.278-4.734,3.127-8.027,4.048c-1.659,0.464-3.402,0.573-5.18,0.661   c1.884-0.715,3.295-1.686,4.135-2.425c2.078-1.831,7.225-3.453,8.16-3.915c2.379-1.262,12.301-5.464,14.953-10.672   c2.152-4.224,3.696-10.909,3.277-13.109c-0.145-0.757-9.253,5.506-12.349,7.552c-3.784,2.502-6.286,2.363-9.906,4.996   c-3.25,2.103-3.865,4.153-6.848,5.824c-4.458,2.498-10.346,2.114-14.409,7.104c-0.296,0.363,0.678,4.414,4.036,5.187   c0.773,0.178,1.52,0.292,2.242,0.354c-1.282,0.405-2.551,1.011-3.791,1.953c-0.372,0.282-0.38,4.451,2.703,5.99   c5.983,2.988,11.205,1.359,13.413,0.196c2.451-1.289,7.836-1.652,8.853-1.88c0.441-0.114,1.116-0.259,1.946-0.441   c-1.441,0.953-2.842,1.906-3.652,2.443c-2.646,1.756-4.397,1.661-6.929,3.509c-2.273,1.475-2.701,2.911-4.788,4.084   c-3.116,1.753-7.241,1.49-10.078,4.987c-0.207,0.251,0.48,3.091,2.83,3.628c4.564,1.039,7.849-0.935,9.155-2.092   c1.455-1.285,5.054-2.425,5.71-2.749c1.663-0.885,8.604-3.838,10.457-7.486c1.133-2.234,2.021-5.445,2.263-7.55   c3.786-1.081,8.017-2.716,10.135-5.186c3.087-3.598,6.162-9.731,6.271-11.97C-323.841,37.118-334.169,41.061-337.66,42.32z    M-374.304,83.224c-1.254-1.079-2.234-2.505-2.759-4.202c-0.524-1.696-0.518-3.428-0.092-5.024c0.757-1.879,0.9-4.015,0.256-6.101   c-1.487-4.812-6.593-7.507-11.403-6.02c-2.576,0.795-4.536,2.632-5.581,4.901l-0.027-0.032c-2.24,4.637-2.62,11.12-0.594,17.679   c2.027,6.558,5.998,11.697,10.462,14.263l0.008-0.062c2.142,1.278,4.792,1.687,7.361,0.893c4.812-1.488,7.508-6.591,6.021-11.404   C-371.295,86.03-372.62,84.346-374.304,83.224z M-378.609,87.131c-0.805,0.25-2.364-2.486-3.482-6.104   c-1.119-3.622-1.375-6.759-0.569-7.009c0.805-0.248,2.364,2.486,3.482,6.105C-378.058,83.745-377.805,86.883-378.609,87.131z    M-332.025,73.773c-1.882-3.13-5.943-4.142-9.073-2.258c-1.355,0.813-2.311,2.038-2.809,3.419c-0.543,1.071-1.375,2.009-2.48,2.672   c-1.103,0.663-2.321,0.96-3.521,0.938c-1.454-0.207-2.982,0.062-4.338,0.878c-3.13,1.883-4.141,5.945-2.259,9.073   c1.007,1.675,2.64,2.737,4.419,3.077l-0.018,0.026c3.653,0.771,8.283-0.086,12.549-2.651c4.265-2.565,7.193-6.253,8.224-9.841   l-0.045,0.004C-330.848,77.381-331.02,75.445-332.025,73.773z M-344.102,80.798c-2.355,1.417-4.52,2.142-4.836,1.617   c-0.312-0.522,1.341-2.094,3.695-3.511c2.354-1.416,4.519-2.14,4.832-1.617C-340.094,77.812-341.748,79.382-344.102,80.798z"/>
	<path d="M207.032,58.068h-0.562c0.072,0.004,0.145,0.022,0.217,0.022C206.805,58.091,206.918,58.081,207.032,58.068z    M186.871,20.432l-7.318-1.024v6.362h7.318V20.432z M163.807,35.584c0.003,0,0.003,0,0.005,0H183.6l4.4,5.5l4.399-5.5h19.795   c2.429,0,4.398-1.968,4.398-4.398V4.813c0-2.43-1.97-4.399-4.398-4.399h-48.388c-2.429,0-4.398,1.969-4.398,4.399v26.373   C159.408,33.616,161.378,35.584,163.807,35.584z M171.163,25.77h1.428V9.706c0-0.396,0.319-0.714,0.714-0.714   s0.714,0.318,0.714,0.714v9.258l4.106-2.103V9.706c0-0.396,0.318-0.714,0.713-0.714s0.715,0.318,0.715,0.714v6.818l7.318,1.024   V9.706c0-0.396,0.318-0.714,0.713-0.714s0.715,0.318,0.715,0.714v7.77l5.113-2.583l-0.025-0.059   c-0.35-0.396-0.476-0.967-0.27-1.493c0.295-0.749,1.141-1.116,1.89-0.824l2.483,0.974c0.752,0.295,1.12,1.141,0.826,1.89   l-0.975,2.484c-0.21,0.533-0.701,0.875-1.236,0.92c-0.216,0.018-0.439-0.011-0.653-0.096c-0.512-0.202-0.838-0.66-0.905-1.172   l-5.783,2.923c-0.147,0.074-0.305,0.112-0.465,0.133v5.196h13.327V9.706c0-0.396,0.319-0.714,0.714-0.714s0.714,0.318,0.714,0.714   V25.77h1.784c0.396,0,0.715,0.32,0.715,0.714c0,0.395-0.319,0.714-0.715,0.714h-33.675c-0.395,0-0.714-0.319-0.714-0.714   C170.449,26.089,170.769,25.77,171.163,25.77z M178.125,20.069l-3.455,1.77c-0.208,0.107-0.431,0.157-0.649,0.157   c-0.001,0-0.001,0-0.002,0v3.773h4.106V20.069z M180.302,54.501c0,4.252,3.447,7.698,7.698,7.698s7.698-3.446,7.698-7.698   c0-4.25-3.447-7.698-7.698-7.698S180.302,50.25,180.302,54.501z M222.089,78.692h-14.294v20.894h19.793V84.191   C227.588,81.153,225.128,78.692,222.089,78.692z M218.791,68.796c0-3.644-2.953-6.599-6.597-6.599   c-3.646,0-6.599,2.955-6.599,6.599c0,3.643,2.953,6.597,6.599,6.597C215.838,75.393,218.791,72.438,218.791,68.796z    M196.798,65.497h-17.595c-3.645,0-6.597,2.952-6.597,6.599v27.49h30.79v-27.49C203.396,68.452,200.441,65.497,196.798,65.497z    M148.412,84.191v15.395h19.795V78.692h-14.298C150.874,78.692,148.412,81.154,148.412,84.191z M163.809,62.197   c-3.646,0-6.599,2.955-6.599,6.599c0,3.643,2.953,6.597,6.599,6.597c3.643,0,6.597-2.954,6.597-6.597   C170.405,65.152,167.451,62.197,163.809,62.197z"/>
	<path d="M64.582,17.882c0.676,0.272,1.444-0.054,1.718-0.728l4.346-10.752c0.035-0.089,0.069-0.193,0.094-0.288   c0.284-1.146-0.416-2.306-1.562-2.59c-1.146-0.285-2.307,0.414-2.591,1.562l-2.791,11.256   C63.64,16.968,63.965,17.632,64.582,17.882z M79.244,24.171l7.451-8.886c0.061-0.073,0.125-0.162,0.178-0.246   c0.624-1.001,0.316-2.321-0.687-2.945c-1.004-0.625-2.322-0.317-2.946,0.687l-6.127,9.844c-0.342,0.55-0.237,1.281,0.272,1.709   C77.944,24.803,78.776,24.73,79.244,24.171z M49.742,19.897c-5.838,0.041-11.354,1.367-16.323,3.657   c0.352,0.04,0.599,0.065,0.599,0.065s7.146,0.632,10.546-0.756c3.392-1.374,6.132,2.34,4.777,2.355   c-1.365,0.004-3.035,4.102-1.67,4.102c1.355-0.016,1.701,2.023,3.726-0.375c2.03-2.394,1.699-1.364,5.462,0.994   c3.751,2.352-2.377,2.385-2.377,2.385s-1.334,2.736-3.039,2.748c-1.695,0.01-5.755,4.456-6.749,7.526   c-1,3.069-1.335,3.073-2.721,0.701c-1.371-2.377-3.414-0.663-5.757,2.416c-2.36,3.078,4.457,6.093,4.457,6.093l3.424,3.034   c0,0,2.721-0.689,4.077-1.384c1.342-0.688,1.025,1.355,5.808,3.367c4.767,2.015,0.695,2.373,5.121,3.708   c4.424,1.327,5.477,4.729,5.477,4.729l-1.344,2.724L61.9,72.084c0,0-2.03,0.688-3.027,4.099c-1.006,3.399-3.376,4.096-5.071,5.812   c-1.696,1.705,0.377,5.441,1.412,7.471c1.037,2.047-2.034-0.324-3.401-0.654c-1.372-0.336-2.077-4.41-2.771-6.438   c-0.685-2.032,0.303-6.803,0.282-9.188c-0.01-2.376-1.379-3.048-3.092-5.086c-1.71-2.031-1.72-2.364-2.758-6.102   c-1.052-3.735-0.385-4.759,0.631-5.446c1.016-0.681-2.726-2.016-4.437-2.693c-1.698-0.669-3.413-2.022-5.799-3.693   c-2.393-1.686-3.092-4.399-4.13-5.755c-1.02-1.355-1.406-7.479-1.423-9.522c-0.01-2.031,2.345-4.435,1.317-6.136   c-0.462-0.743-1.859-0.877-3.461-0.854c-9.731,7.312-16.009,18.926-15.924,32.018c0.046,7.58,2.254,14.614,5.979,20.623   c1.373,0.474,4.526,1.502,5.877,1.502c1.741,0,6.55-0.431,7.854,3.057c1.306,3.491,3.496,3.927,0.433,7.422   c-0.373,0.428-0.703,0.783-0.995,1.077c6.092,3.704,13.222,5.843,20.875,5.79c21.94-0.138,39.624-18.06,39.479-40.014   C89.602,37.424,71.693,19.759,49.742,19.897z M50.412,15.693c0.728,0.052,1.357-0.495,1.409-1.222l0.817-11.569   c0.006-0.094,0.008-0.203,0-0.3c-0.083-1.179-1.106-2.066-2.284-1.983c-1.179,0.083-2.066,1.105-1.982,2.283l0.817,11.569   C49.234,15.116,49.749,15.647,50.412,15.693z M34.294,17.095c0.251,0.595,0.908,0.934,1.551,0.763   c0.706-0.185,1.127-0.906,0.942-1.609L33.842,5.031c-0.022-0.091-0.058-0.194-0.096-0.285c-0.457-1.089-1.712-1.601-2.801-1.144   s-1.602,1.711-1.143,2.801L34.294,17.095z M21.033,24.366c0.428,0.484,1.16,0.593,1.714,0.225c0.608-0.401,0.775-1.219,0.373-1.828   l-6.393-9.674c-0.051-0.079-0.118-0.167-0.184-0.239c-0.782-0.884-2.134-0.966-3.019-0.183c-0.884,0.783-0.968,2.135-0.183,3.02   L21.033,24.366z"/>
	<g>
		<g>
			<path d="M-98.025,49.999l-24.612-24.611h-15.494l24.614,24.611h-0.005l-24.609,24.613h15.491l24.611-24.613H-98.025z      M-62.479,25.388h-15.494l24.614,24.611h-0.005l-24.609,24.613h15.492l24.611-24.613h0.002L-62.479,25.388z M-77.974,49.999     l-24.611-24.611h-15.493l24.613,24.611h-0.005l-24.608,24.613h15.491l24.611-24.613H-77.974z M-57.92,49.999l-24.611-24.611     h-15.494l24.614,24.611h-0.006l-24.608,24.613h15.491l24.611-24.613H-57.92z"/>
		</g>
	</g>
	<path d="M-205.45,43.576h-41.106c-8.509,0-15.405,6.901-15.405,15.414v41.099h71.924V58.989   C-190.043,50.481-196.948,43.576-205.45,43.576z M-226,35.873c9.929,0,17.981-8.043,17.981-17.979   c0-9.93-8.053-17.981-17.981-17.981c-9.936,0-17.981,8.051-17.981,17.981C-243.981,27.829-235.936,35.873-226,35.873z"/>
	<path d="M-241.527,299.404c4.541,0,8.223-3.682,8.223-8.221c0-4.541-3.682-8.225-8.223-8.225c-4.542,0-8.224,3.684-8.224,8.225   C-249.751,295.723-246.069,299.404-241.527,299.404z M-192.187,307.629c-0.002-4.54-3.686-8.225-8.224-8.225h-21.931   c-4.54,0-8.222,3.682-8.222,8.225v21.928h38.376V307.629z M-211.374,295.295c5.298,0,9.594-4.293,9.594-9.595   c0-5.298-4.296-9.594-9.594-9.594c-5.302,0-9.595,4.296-9.595,9.594C-220.969,291.002-216.676,295.295-211.374,295.295z    M-236.046,307.629c0-1.43,0.223-2.814,0.633-4.111h-18.45c-3.783,0-6.853,3.068-6.853,6.854v19.186h24.67V307.629z    M-188.049,336.671h-75.902c-1.254,0-2.278,1.026-2.278,2.279v34.665c0,1.253,1.024,2.278,2.278,2.278h75.902   c1.253,0,2.278-1.025,2.278-2.278V338.95C-185.771,337.697-186.796,336.671-188.049,336.671z M-188.183,373.482h-75.636v-34.398   h75.636V373.482z M-247.225,358.271l-4.878,7.886l2.622,1.621l4.878-7.885l-0.55-0.34l1.021-1.648   c3.093,1.397,6.815,0.325,8.65-2.643c1.994-3.223,0.998-7.452-2.226-9.446c-3.225-1.995-7.454-0.998-9.447,2.226   c-1.834,2.966-1.134,6.775,1.498,8.92l-1.021,1.649L-247.225,358.271z M-245.352,349.156c1.38-2.228,4.301-2.917,6.53-1.538   c2.228,1.377,2.916,4.302,1.538,6.529c-1.379,2.229-4.303,2.917-6.529,1.538C-246.041,354.307-246.73,351.385-245.352,349.156z"/>
	<path d="M-340.4,312.756c0.076,0.006,0.15,0.023,0.225,0.023c0.119,0,0.236-0.009,0.353-0.023H-340.4z M-337.688,333.486   c0.033-0.089,0.068-0.179,0.109-0.265c0.591-1.246,1.053-2.53,1.393-3.834h-16.044l5.438,4.099H-337.688z M-352.51,301.378   c0.315,0.64,0.958,1.012,1.628,1.012c0.27,0,0.543-0.062,0.802-0.187c0.616-0.305,0.977-0.915,1.001-1.56   c2.343,0.87,4.535,2.084,6.536,3.639c9.051,7.032,12.057,19.639,7.149,29.977c-0.43,0.905-0.045,1.987,0.86,2.416   c0.254,0.119,0.517,0.176,0.777,0.176c0.68,0,1.328-0.383,1.64-1.035c5.632-11.864,2.184-26.329-8.201-34.396   c-2.325-1.806-4.878-3.215-7.604-4.215c0.392-0.527,0.488-1.249,0.178-1.879c-0.443-0.897-1.53-1.267-2.43-0.825l-2.979,1.469   c-0.899,0.441-1.269,1.53-0.825,2.429L-352.51,301.378z M-335.849,319.708h-29.231l8.399,6.328h21.1   C-335.368,323.917-335.464,321.783-335.849,319.708z M-371.168,305.268c-3.179,0-6.062-1.026-8.117-2.152l-1.465,5.721   c1.857,1.028,5.036,1.956,8.311,2.103v4.644h4.839v-5.035c5.623-0.929,8.653-4.644,8.653-8.995c0-4.449-2.296-7.137-8.115-9.189   c-4.206-1.518-5.917-2.593-5.917-4.155c0-1.371,1.027-2.788,4.206-2.788c3.519,0,5.818,1.123,7.04,1.712l1.468-5.526   c-1.712-0.78-3.913-1.515-7.139-1.611v-4.303h-4.791v4.644c-5.232,0.979-8.262,4.352-8.262,8.703c0,4.741,3.569,7.186,8.801,8.945   c3.665,1.222,5.23,2.396,5.23,4.255C-366.425,304.142-368.333,305.268-371.168,305.268z M-394.929,306.081   c-3.021-1.092-4.252-1.865-4.252-2.989c0-0.982,0.739-2.002,3.02-2.002c2.532,0,4.185,0.807,5.065,1.229l1.053-3.973   c-1.231-0.559-2.812-1.087-5.134-1.156v-3.092h-3.441v3.339c-3.761,0.701-5.939,3.126-5.939,6.253c0,3.409,2.567,5.167,6.326,6.432   c2.638,0.877,3.762,1.724,3.762,3.058c0,1.371-1.374,2.181-3.411,2.181c-2.285,0-4.358-0.742-5.83-1.55l-1.055,4.113   c1.334,0.737,3.618,1.405,5.974,1.512v3.336h3.477v-3.62c4.042-0.666,6.22-3.338,6.22-6.464   C-389.097,309.489-390.747,307.557-394.929,306.081z M-344.831,338.327l-25.322-18.619c-2.055,0-3.724,1.665-3.724,3.722v30.535   c0,1.646,1.05,1.909,3.724,3.725l25.322,18.62c2.056,0,3.726-1.668,3.726-3.726v-30.537   C-341.149,340.694-344.831,338.327-344.831,338.327z M-323.237,323.43c0-2.056-1.668-3.722-3.725-3.722h-0.334   c0.77,5.727-0.046,11.688-2.635,17.145c-0.699,1.469-2.201,2.417-3.825,2.417c-0.631,0-1.242-0.138-1.813-0.41   c-0.898-0.426-1.601-1.136-2.016-2.024h-4.76l0.494,0.374c0,0,3.722,2.131,3.722,3.724v18.618h11.173   c2.058,0,3.724-1.667,3.724-3.724L-323.237,323.43z M-387.999,284.946c-1.657-0.599-2.333-1.022-2.333-1.639   c0-0.538,0.406-1.099,1.659-1.099c1.387,0,2.292,0.443,2.775,0.676l0.576-2.178c-0.675-0.309-1.54-0.599-2.813-0.636v-1.696h-1.888   v1.832c-2.062,0.384-3.257,1.714-3.257,3.429c0,1.868,1.407,2.831,3.469,3.527c1.446,0.48,2.061,0.943,2.061,1.677   c0,0.749-0.75,1.194-1.868,1.194c-1.252,0-2.39-0.406-3.198-0.85l-0.578,2.256c0.731,0.403,1.985,0.77,3.276,0.828v1.829h1.906   v-1.983c2.216-0.366,3.411-1.831,3.411-3.547C-384.8,286.815-385.705,285.755-387.999,284.946z"/>
	<path d="M-356.709,199.189h-4.896l0.555,1.489l0.08,0.104h3.465c0.991,0,1.629,0.771,1.629,1.761v11.065l1.562-0.78l-0.017-11.117   C-354.33,200.72-355.716,199.189-356.709,199.189z M-357.304,227.869h-3.983c-3.522,0-6.375-2.852-6.375-6.372   c0-3.521,2.853-6.373,6.375-6.373h3.983l0.184-0.097l-0.002-10.852c0-0.989-0.985-1.799-1.977-1.799h-19.334   c0.157,0.77,0.128,1.58-0.125,2.365l-1.008,3.137c-0.623,1.95-2.417,3.26-4.465,3.26c-0.487,0-0.97-0.077-1.434-0.226l-3.141-1.009   c-2.457-0.791-3.819-3.437-3.031-5.902c0.148-0.451,0.355-0.87,0.62-1.246c-0.048-0.125-0.088-0.254-0.136-0.379h-8.396   c-0.144-0.005-0.274-0.013-0.394-0.033h-0.981c-0.438,0-0.796-0.358-0.796-0.797c0-0.362,0.24-0.67,0.569-0.765h9.933l-0.555-1.593   h-7.772l0.036-0.013c-3.848-0.003-5.024,0.041-4.987,4.829v32.383c0,0.992,0.988,1.838,1.98,1.838h43.418   c0.991,0,1.987-0.817,1.987-1.804l-0.003-8.648L-357.304,227.869z M-378.661,201.581h16.417l-2.412-6.53l-14.728,5.308   C-379.079,200.732-378.834,201.143-378.661,201.581z M-373.308,149.335c-1.243,0-2.37-0.403-3.172-0.842l-0.574,2.236   c0.726,0.4,1.969,0.763,3.25,0.821v1.813h1.892v-1.966c2.194-0.363,3.381-1.816,3.381-3.518c0-1.737-0.898-2.789-3.171-3.59   c-1.645-0.595-2.311-1.014-2.311-1.626c0-0.534,0.401-1.089,1.644-1.089c1.373,0,2.271,0.438,2.751,0.669l0.571-2.159   c-0.671-0.306-1.529-0.593-2.789-0.63v-1.683h-1.873v1.816c-2.045,0.382-3.229,1.7-3.229,3.4c0,1.853,1.395,2.808,3.438,3.496   c1.435,0.478,2.044,0.938,2.044,1.664C-371.456,148.894-372.201,149.335-373.308,149.335z M-387.46,203.673   c-0.642,0.106-1.207,0.553-1.421,1.217c-0.302,0.945,0.217,1.958,1.164,2.262l3.139,1.007c0.944,0.305,1.958-0.217,2.26-1.163   l1.007-3.138c0.216-0.674,0.014-1.383-0.464-1.843c-0.192-0.187-0.428-0.33-0.699-0.419c-0.653-0.208-1.328-0.021-1.791,0.421   c-1.07-2.233-1.796-4.612-2.152-7.098c-1.61-11.253,4.934-22.312,15.559-26.304c0.928-0.349,1.401-1.385,1.05-2.315   c-0.098-0.26-0.248-0.479-0.432-0.659c-0.485-0.469-1.211-0.644-1.884-0.395c-12.19,4.581-19.698,17.272-17.853,30.181   C-389.566,198.317-388.715,201.079-387.46,203.673z M-353.226,163.321c-4.17-1.505-5.868-2.57-5.868-4.121   c0-1.358,1.02-2.764,4.171-2.764c3.49,0,5.771,1.114,6.98,1.697l1.457-5.479c-1.698-0.775-3.878-1.503-7.078-1.599v-4.268h-4.752   v4.606c-5.19,0.97-8.193,4.313-8.193,8.631c0,4.701,3.54,7.123,8.727,8.87c3.635,1.21,5.186,2.375,5.186,4.219   c0,1.889-1.89,3.006-4.7,3.006c-3.153,0-6.012-1.019-8.051-2.136l-1.453,5.673c1.843,1.02,4.991,1.938,8.24,2.086v4.604h4.801   v-4.993c5.575-0.921,8.581-4.606,8.581-8.92C-345.178,168.022-347.457,165.357-353.226,163.321z M-329.284,154.03   c-2.995-1.084-4.217-1.85-4.217-2.964c0-0.974,0.73-1.985,2.994-1.985c2.511,0,4.149,0.801,5.022,1.22l1.042-3.94   c-1.221-0.555-2.785-1.077-5.09-1.146v-3.067h-3.413v3.311c-3.729,0.696-5.891,3.101-5.891,6.201c0,3.382,2.546,5.124,6.275,6.378   c2.615,0.87,3.729,1.709,3.729,3.033c0,1.358-1.362,2.161-3.381,2.161c-2.266,0-4.323-0.736-5.784-1.536l-1.044,4.078   c1.324,0.731,3.587,1.395,5.924,1.501v3.307h3.449v-3.59c4.005-0.66,6.166-3.311,6.166-6.411   C-323.502,157.41-325.138,155.493-329.284,154.03z M-340.374,174.89c0.118,0,0.233-0.009,0.35-0.022h-0.571   C-340.522,174.872-340.447,174.89-340.374,174.89z M-355.876,226.354v9.1c0.904-0.098,1.59-0.909,1.59-1.837l-0.013-8.051   L-355.876,226.354z M-361.287,216.716c-2.644,0-4.782,2.139-4.782,4.779s2.14,4.78,4.782,4.78h3.983l2.992-2.513l-0.01-9.497   l-2.982,2.45H-361.287z M-361.287,223.887c-1.319,0-2.392-1.072-2.392-2.392c0-1.318,1.073-2.389,2.392-2.389   c1.315,0,2.387,1.07,2.387,2.389C-358.9,222.814-359.972,223.887-361.287,223.887z"/>
	<g>
		<g>
			<path d="M-203.85,179.312h-34.598v4.401h34.598V179.312z M-222.03,216.512h22.125V191h-22.125V216.512z M-214.594,156.927v-1.46     h-34.598v1.46H-214.594z M-260.099,145.539h57.453v14.793h5.61v-21.578h-68.674v74.647h8.477v-5.608h-2.866V145.539z      M-227.226,191h-13.195v2.261h13.195V191z M-227.226,205.576h-13.195v2.263h13.195V205.576z M-227.226,219.652h-13.195v2.264     h13.195V219.652z M-227.226,198.413h-13.195v2.262h13.195V198.413z M-254.965,162.599v74.647h59.945     c4.468,0,8.729-5.277,8.729-11.185v-63.463H-254.965z M-191.9,226.062c0,1.76-1.25,4.398-3.119,4.398h-54.335v-61.076h57.454     V226.062z M-227.226,212.49h-13.195v2.263h13.195V212.49z"/>
		</g>
	</g>
	<path d="M11,156.027h8.326v-3.117H11V156.027z M11,150.152h8.326V139.63H11V150.152z M15.109,212.95l4.217-8.326H11L15.109,212.95z    M71.758,179.466H37.773v4.321h33.984V179.466z M11,202.13h8.326v-43.628H11V202.13z M53.901,216.001H75.63v-25.054H53.901V216.001   z M48.796,190.947H35.837v2.22h12.959V190.947z M48.796,212.053H35.837v2.225h12.959V212.053z M21.551,154.469v81.901h58.878   c4.387,0,8.571-5.186,8.571-10.99v-70.911H21.551z M83.488,225.38c0,1.729-1.223,4.321-3.06,4.321H27.062v-68.568h56.426V225.38z    M48.796,219.085H35.837v2.225h12.959V219.085z M48.796,198.225H35.837v2.225h12.959V198.225z M48.796,205.262H35.837v2.225h12.959   V205.262z"/>
	<path d="M-94.84,293.104c-3.454-1.89-7.826-6.262-9.716-9.717l-3.435-6.281l-3.436,6.281c-1.89,3.455-6.263,7.827-9.717,9.717   l-6.281,3.435l6.281,3.436c3.454,1.89,7.827,6.262,9.717,9.717l3.436,6.281l3.435-6.281c1.89-3.455,6.262-7.827,9.716-9.717   l6.281-3.436L-94.84,293.104z M-67.38,322.515c-5.195,0-9.402,4.21-9.402,9.401c0,5.195,4.207,9.402,9.402,9.402   c5.191,0,9.401-4.207,9.401-9.402C-57.979,326.725-62.188,322.515-67.38,322.515z M-73.669,296.035l1.996,3.649l1.996-3.649   c1.097-2.007,3.638-4.546,5.645-5.645l3.648-1.995l-3.648-1.995c-2.007-1.099-4.548-3.638-5.645-5.645l-1.996-3.649l-1.996,3.649   c-1.097,2.007-3.638,4.546-5.645,5.645l-3.648,1.995l3.648,1.995C-77.307,291.489-74.766,294.028-73.669,296.035z M-56.636,345.345   h-21.491c-4.449,0-8.057,3.608-8.057,8.061v21.488h37.607v-21.488C-48.579,348.956-52.188,345.345-56.636,345.345z    M-84.785,319.634c0.77-1.406,2.55-3.187,3.957-3.956l2.557-1.399l-2.557-1.398c-1.407-0.77-3.188-2.55-3.957-3.956l-1.398-2.558   l-1.399,2.558c-0.77,1.406-2.55,3.187-3.956,3.956l-2.558,1.398l2.558,1.399c1.406,0.77,3.187,2.55,3.956,3.956l1.399,2.558   L-84.785,319.634z"/>
	<path d="M-121.232,159.624c0.004,0,0.006,0.002,0.009,0.003c-0.002-0.001-0.003-0.003-0.005-0.003   C-121.229,159.624-121.23,159.624-121.232,159.624z M-112.761,159.504c0.006,0,0.012,0.001,0.017,0.002   c-0.005,0-0.011-0.002-0.015-0.002C-112.761,159.504-112.761,159.504-112.761,159.504z M-114.817,160.144   C-114.818,160.144-114.818,160.144-114.817,160.144c-0.003,0-0.007,0.002-0.009,0.002   C-114.824,160.145-114.82,160.144-114.817,160.144z M-112.732,159.508c0.005,0,0.008-0.002,0.012-0.004   c-0.007,0.001-0.015,0.002-0.023,0.002C-112.739,159.507-112.736,159.508-112.732,159.508z M-112.702,159.499   c-0.001,0-0.003,0-0.004,0c-0.005,0-0.009,0.005-0.015,0.005C-112.714,159.501-112.708,159.499-112.702,159.499z M-112.42,158.715   h-0.004c-0.003,0.047-0.007,0.092-0.004,0.145C-112.431,158.806-112.422,158.764-112.42,158.715z M-114.891,160.137   c0.007,0.001,0.014,0.003,0.02,0.004c-0.004,0-0.008-0.003-0.013-0.003C-114.886,160.138-114.888,160.138-114.891,160.137z    M-121.194,159.632L-121.194,159.632h-0.002C-121.196,159.632-121.195,159.632-121.194,159.632z M-114.837,160.148   c0.004,0,0.008-0.001,0.011-0.003c-0.014,0.001-0.029-0.002-0.045-0.005C-114.859,160.145-114.848,160.148-114.837,160.148z    M-121.203,159.633c0.002,0,0.005,0,0.007-0.001c-0.01,0-0.018-0.005-0.027-0.005C-121.217,159.629-121.21,159.633-121.203,159.633   z M-121.546,158.715c0.006,0.062,0.017,0.12,0.014,0.192c0.002-0.069-0.002-0.132-0.009-0.192H-121.546z M-120.153,158.985   c-0.004,0-0.007,0.002-0.01,0.002c0.021-0.001,0.041,0.003,0.062,0.005c-0.004,0-0.008-0.004-0.012-0.004   C-120.128,158.987-120.14,158.985-120.153,158.985z M-103.204,207.988h13.554v-2.324h-13.554V207.988z M-118.17,159.317   c-0.009,0-0.017,0.004-0.025,0.006c0.024-0.005,0.049-0.01,0.073-0.008c-0.004,0-0.007-0.003-0.01-0.003   C-118.146,159.312-118.157,159.316-118.17,159.317z M-84.313,216.896h22.727v-26.205h-22.727V216.896z M-103.204,193.014h13.554   v-2.322h-13.554V193.014z M-103.204,215.09h13.554v-2.324h-13.554V215.09z M-103.204,222.447h13.554v-2.325h-13.554V222.447z    M-103.204,200.63h13.554v-2.324h-13.554V200.63z M-117.11,160.388c-0.023,0-0.047-0.007-0.071-0.014   c0.021,0.004,0.042,0.017,0.064,0.017C-117.115,160.391-117.112,160.388-117.11,160.388z M-119.199,160.205   c-0.024,0.004-0.047,0.009-0.07,0.008c0.006,0,0.01,0.005,0.017,0.005C-119.236,160.218-119.217,160.208-119.199,160.205z    M-125.062,156.396c-0.323,0.683-0.001,0.962,0.717,0.621c0.718-0.342,1.154,0.011,0.969,0.782   c-0.185,0.771,0.167,1.022,0.781,0.557c0.075-0.057,0.147-0.103,0.218-0.139c0.013-0.005,0.023-0.007,0.035-0.014   c0.057-0.026,0.11-0.047,0.161-0.06c0.022-0.006,0.041-0.007,0.062-0.009c0.038-0.007,0.076-0.011,0.112-0.009   c0.026,0.001,0.05,0.007,0.073,0.012c0.026,0.007,0.052,0.014,0.076,0.021c0.027,0.013,0.052,0.028,0.076,0.045   c0.017,0.012,0.031,0.023,0.045,0.037c0.026,0.024,0.052,0.053,0.072,0.085c0.009,0.013,0.015,0.025,0.022,0.038   c0.022,0.04,0.042,0.084,0.058,0.134c0.003,0.008,0.004,0.018,0.007,0.025c0.017,0.059,0.028,0.121,0.035,0.19   c0.007,0.062,0.012,0.124,0.009,0.196c0-0.002,0-0.003,0-0.004c0,0.002,0,0.004,0,0.006c-0.018,0.45,0.105,0.692,0.304,0.711   c0.012,0.003,0.021,0.008,0.033,0.008c0.137-0.005,0.304-0.106,0.488-0.316c0.189-0.216,0.377-0.319,0.544-0.328c0,0,0,0-0.001,0   c0.004-0.001,0.007-0.001,0.011-0.002c0.005-0.001,0.011-0.002,0.015-0.002c0.009,0,0.018,0.003,0.025,0.005   c0.005,0.003,0.011,0.004,0.017,0.005c-0.002,0-0.003-0.001-0.005-0.001c0.229,0.022,0.408,0.236,0.469,0.641   c0.106,0.724,0.51,0.783,0.896,0.133c0.167-0.279,0.358-0.419,0.542-0.442c-0.004,0-0.008,0-0.013,0.002   c0.013-0.004,0.025-0.006,0.038-0.008c0.01-0.002,0.021-0.006,0.03-0.006c0.002,0,0.004,0,0.008,0.001   c0.002,0.001,0.006,0.003,0.01,0.003l0,0c0.218,0.012,0.42,0.195,0.551,0.56c0.254,0.711,0.682,0.682,0.949-0.064   c0.267-0.747,0.825-0.804,1.237-0.125c0.175,0.285,0.349,0.429,0.501,0.452c0.022,0.003,0.044,0.007,0.065,0.006   c0.18-0.016,0.321-0.219,0.376-0.615c0.103-0.765,0.618-0.929,1.143-0.364c0.209,0.225,0.395,0.33,0.541,0.34   c0.018,0.001,0.035-0.003,0.053-0.005c0.188-0.023,0.3-0.234,0.272-0.634c-0.004-0.056,0.001-0.102,0.003-0.15h0.007   c0.008-0.227,0.071-0.395,0.174-0.496c0.004-0.002,0.006-0.004,0.008-0.005c0.028-0.027,0.061-0.047,0.096-0.062   c0.024-0.012,0.05-0.019,0.078-0.024c0.016-0.004,0.032-0.009,0.049-0.01c0.16-0.013,0.354,0.053,0.569,0.213   c0.276,0.203,0.492,0.252,0.627,0.177c0.155-0.084,0.206-0.33,0.107-0.72c-0.162-0.64,0.13-0.975,0.661-0.834   c0.074,0.021,0.153,0.051,0.237,0.09c0.088,0.042,0.17,0.073,0.244,0.095c0.015,0.003,0.026,0.003,0.041,0.008   c0.054,0.012,0.108,0.024,0.153,0.025c0.025,0.001,0.044-0.005,0.065-0.009c0.031-0.003,0.063-0.003,0.089-0.012   c0.008-0.002,0.012-0.009,0.019-0.012c0.199-0.088,0.225-0.373,0.02-0.805c-0.339-0.716,0.014-1.152,0.782-0.969   c0.466,0.111,0.736,0.025,0.777-0.194c0.03-0.144-0.037-0.343-0.223-0.588c-0.29-0.384-0.302-0.715-0.081-0.901   c0.134-0.108,0.346-0.168,0.632-0.157c0.389,0.015,0.628-0.073,0.7-0.223c0.016-0.03,0.019-0.065,0.021-0.101   c0-0.008,0.005-0.015,0.004-0.022c-0.007-0.135-0.108-0.301-0.316-0.484c-0.137-0.119-0.23-0.238-0.282-0.354   c-0.156-0.343,0.06-0.635,0.601-0.716c0.294-0.045,0.471-0.139,0.542-0.259c0.107-0.177-0.021-0.411-0.41-0.643   c-0.65-0.386-0.602-0.91,0.109-1.165c0.351-0.125,0.519-0.291,0.512-0.46c-0.004-0.174-0.195-0.351-0.573-0.486   c-0.744-0.267-0.802-0.824-0.126-1.237c0.424-0.26,0.554-0.522,0.404-0.709c-0.089-0.111-0.277-0.196-0.563-0.235   c-0.669-0.091-0.878-0.495-0.543-0.946c0.049-0.064,0.107-0.13,0.178-0.195s0.13-0.13,0.18-0.191   c0.343-0.426,0.161-0.722-0.475-0.682c-0.635,0.038-0.898-0.296-0.665-0.771c0.003-0.006,0.008-0.013,0.011-0.017   c0.032-0.064,0.07-0.128,0.12-0.196c0.012-0.015,0.018-0.029,0.028-0.043c0.038-0.057,0.076-0.112,0.102-0.163   c0.233-0.453-0.033-0.684-0.673-0.522c-0.73,0.185-1.063-0.223-0.74-0.905s0.001-0.962-0.717-0.621   c-0.717,0.342-1.154-0.01-0.969-0.782c0.185-0.771-0.167-1.022-0.781-0.557c-0.075,0.057-0.147,0.103-0.218,0.139   c-0.012,0.005-0.023,0.009-0.035,0.014c-0.055,0.025-0.11,0.047-0.161,0.06c-0.021,0.006-0.041,0.007-0.062,0.009   c-0.039,0.007-0.077,0.011-0.113,0.009c-0.025-0.001-0.05-0.008-0.073-0.012c-0.026-0.006-0.051-0.012-0.076-0.023   c-0.027-0.011-0.052-0.025-0.076-0.043c-0.016-0.011-0.031-0.023-0.045-0.037c-0.026-0.024-0.051-0.053-0.072-0.085   c-0.008-0.012-0.015-0.025-0.022-0.038c-0.022-0.04-0.042-0.084-0.058-0.134c-0.003-0.009-0.004-0.018-0.006-0.025   c-0.018-0.058-0.029-0.121-0.036-0.19c-0.007-0.062-0.012-0.125-0.009-0.198c0.029-0.771-0.341-0.952-0.825-0.402   c-0.483,0.55-0.967,0.408-1.073-0.317c-0.107-0.724-0.511-0.783-0.896-0.132c-0.386,0.65-0.911,0.601-1.165-0.11   c-0.255-0.711-0.683-0.682-0.95,0.064c-0.267,0.747-0.825,0.804-1.237,0.125c-0.414-0.678-0.838-0.607-0.942,0.157   c-0.103,0.765-0.616,0.929-1.143,0.364c-0.525-0.563-0.915-0.429-0.865,0.299c0.003,0.056-0.001,0.102-0.004,0.15h-0.006   c-0.009,0.228-0.072,0.395-0.175,0.496c-0.002,0.002-0.006,0.004-0.008,0.006c-0.028,0.026-0.061,0.046-0.096,0.063   c-0.024,0.01-0.051,0.017-0.077,0.022c-0.017,0.004-0.033,0.009-0.049,0.011c-0.161,0.013-0.354-0.054-0.57-0.214   c-0.276-0.203-0.492-0.252-0.627-0.177c-0.154,0.084-0.206,0.33-0.108,0.72c0.163,0.64-0.129,0.975-0.661,0.833   c-0.073-0.021-0.152-0.049-0.236-0.089c-0.089-0.042-0.169-0.073-0.243-0.095c-0.016-0.004-0.027-0.003-0.043-0.006   c-0.053-0.015-0.107-0.025-0.152-0.027c-0.025-0.001-0.044,0.007-0.065,0.009c-0.031,0.003-0.063,0.002-0.089,0.012   c-0.008,0.002-0.011,0.009-0.018,0.011c-0.2,0.089-0.227,0.373-0.021,0.806c0.339,0.716-0.014,1.152-0.782,0.969   c-0.466-0.111-0.736-0.025-0.777,0.195c-0.03,0.142,0.037,0.342,0.223,0.587c0.29,0.384,0.301,0.715,0.081,0.901   c-0.134,0.109-0.346,0.169-0.632,0.158c-0.388-0.016-0.628,0.071-0.7,0.223c-0.016,0.029-0.019,0.064-0.021,0.1   c0,0.008-0.005,0.015-0.004,0.022c0.007,0.135,0.109,0.301,0.317,0.484c0.136,0.119,0.229,0.239,0.281,0.354   c0.156,0.343-0.06,0.635-0.601,0.716c-0.293,0.045-0.47,0.139-0.542,0.259c-0.107,0.177,0.022,0.412,0.41,0.643   c0.65,0.386,0.602,0.91-0.11,1.165c-0.35,0.124-0.518,0.292-0.51,0.46c0.003,0.174,0.194,0.351,0.572,0.486   c0.745,0.267,0.802,0.824,0.126,1.238c-0.424,0.26-0.554,0.522-0.404,0.708c0.088,0.111,0.277,0.196,0.564,0.235   c0.668,0.091,0.877,0.495,0.542,0.947c-0.049,0.063-0.107,0.129-0.178,0.194c-0.07,0.066-0.13,0.131-0.18,0.191   c-0.343,0.426-0.161,0.722,0.475,0.683c0.635-0.039,0.898,0.295,0.665,0.771c-0.002,0.006-0.007,0.012-0.011,0.018   c-0.032,0.063-0.07,0.128-0.12,0.195c-0.012,0.017-0.019,0.03-0.029,0.047c-0.038,0.054-0.075,0.109-0.101,0.159   c-0.233,0.453,0.033,0.684,0.673,0.522C-125.071,155.307-124.738,155.714-125.062,156.396z M-116.035,159.214   c0.009,0,0.015-0.004,0.021-0.004c0.023,0,0.048,0.01,0.072,0.014C-115.972,159.219-116.002,159.213-116.035,159.214z    M-113.939,158.83c0.015-0.001,0.028-0.011,0.042-0.011c0.008,0,0.016,0.004,0.021,0.004   C-113.898,158.822-113.919,158.828-113.939,158.83z M-118.88,147.234l1.771-3.592l1.771,3.592l3.963,0.575l-2.867,2.794   l0.677,3.946l-3.544-1.861l-3.545,1.861l0.678-3.946l-2.867-2.794L-118.88,147.234z M-104.018,152.542   c-0.067,0.116-0.147,0.235-0.244,0.354c0.06,0.558-0.071,1.006-0.148,1.206c-0.087,0.23-0.332,0.753-0.883,1.167   c-0.028,0.452-0.165,0.803-0.266,1.005c-0.167,0.336-0.402,0.614-0.681,0.841v2.396h52.874v67.195c0,1.808-1.282,4.519-3.203,4.519   h-55.812v-47.152l-4.947-3.045l-0.816,0.534v56.634h61.575c4.589,0,8.965-5.422,8.965-11.489v-74.164H-104.018z M-101.176,183.206   h35.537v-4.519h-35.537V183.206z M-108.567,183.684v-24.303c-0.015,0.005-0.026,0.012-0.042,0.016   c-0.09,0.188-0.193,0.348-0.298,0.481c-0.442,0.567-1.09,0.918-1.804,0.981c-0.048,0.061-0.095,0.115-0.142,0.165   c-0.493,0.524-1.16,0.812-1.88,0.812c-0.113,0-0.239-0.006-0.373-0.025c-0.506,0.452-1.135,0.666-1.731,0.666   c-0.233,0-0.55-0.031-0.898-0.158c-0.577,0.354-1.139,0.4-1.382,0.4c-0.228,0-0.729-0.038-1.258-0.325   c-0.339,0.121-0.649,0.152-0.878,0.152c-0.564,0-1.159-0.192-1.65-0.602c-0.106,0.012-0.206,0.018-0.3,0.018   c-0.707,0-1.366-0.282-1.859-0.792c-0.07-0.075-0.145-0.16-0.216-0.256c-0.745-0.045-1.424-0.397-1.886-0.982   c-0.11-0.14-0.223-0.31-0.317-0.512c-0.058-0.012-0.111-0.038-0.166-0.054v24.317l8.283-5.412L-108.567,183.684z"/>
	<path d="M191,217h24v-27h-24V217z M175,183h35v-4h-35V183z M159.544,166.503l0.587-3.506c6.218,0.223,11.789-4.184,12.839-10.492   c1.145-6.853-3.485-13.335-10.338-14.478c-6.855-1.146-13.337,3.484-14.48,10.337c-1.051,6.306,2.783,12.282,8.739,14.093   l-0.585,3.506l-1.167-0.195l-2.799,16.766l5.574,0.931l2.798-16.767L159.544,166.503z M161,159.047V153h7.784   C167.723,156,165,158.597,161,159.047z M155,146v11.846c-3-1.797-4.125-5.24-3.525-8.841c0.793-4.738,5.524-8.069,10.263-7.28   c2.738,0.456,5.21,2.275,6.446,4.275H155z M175.316,152c-0.017,0-0.031,0.26-0.052,0.381c-0.413,2.48-1.422,4.619-2.854,6.619H223   v67.638c0,1.807-1.285,4.362-3.204,4.362H164v-66.075c0,0.053-0.439,0.11-0.67,0.153l-0.327,2.002l-3.428,16.767L157,196.675V238   h62.796c4.587,0,8.204-5.299,8.204-11.362V152H175.316z M173,215h13v-3h-13V215z M173,223h13v-3h-13V223z M173,201h13v-3h-13V201z    M173,193h13v-3h-13V193z M173,207h13v-2h-13V207z"/>
</g>
</svg>