<?xml version="1.0" encoding="utf-8"?>
<!-- Generator: Adobe Illustrator 14.0.0, SVG Export Plug-In . SVG Version: 6.00 Build 43363)  -->
<!DOCTYPE svg PUBLIC "-//W3C//DTD SVG 1.0//EN" "http://www.w3.org/TR/2001/REC-SVG-20010904/DTD/svg10.dtd">
<svg version="1.0" id="Layer_1" xmlns="http://www.w3.org/2000/svg" xmlns:xlink="http://www.w3.org/1999/xlink" x="0px" y="0px"
	 width="100px" height="70.218px" viewBox="0 0 100 70.218" enable-background="new 0 0 100 70.218" xml:space="preserve">
<rect x="94.468" width="5.532" height="70.218"/>
<path d="M63.441,0L50.739,8.438l-11.29,7.498l-12.704,8.439l-11.297,7.504L2.562,40.343c-1.101,0.609-2.494,1.942-2.559,4.807
	c-0.043,1.901,0.518,4.134,1.581,6.287c2,4.049,5.757,7.71,9.639,6.765c0.125-0.03,0.248-0.066,0.371-0.105l15.908-3.875
	l13.562-3.303l15.257-3.717L69.872,43.9l15.248-3.714l9.348-34.711L63.441,0z M10.184,54.462c-0.855-0.276-2.812-1.723-4.315-4.765
	c-1.502-3.044-1.391-5.33-1.049-6.092c0.855,0.275,2.812,1.722,4.314,4.765C10.638,51.414,10.526,53.7,10.184,54.462z
	 M26.607,50.546c-0.663-2.273-1.504-4.462-2.516-6.557c-0.555-1.15-1.161-2.272-1.814-3.365c-1.227-2.053-2.621-4.001-4.168-5.84
	l11.294-7.502c2.091,2.447,3.958,5.058,5.579,7.818c0.645,1.098,1.253,2.219,1.818,3.364c1.376,2.793,2.506,5.723,3.369,8.778
	L26.607,50.546z M55.425,43.527c-1.086-3.937-2.545-7.699-4.335-11.275c-0.57-1.142-1.175-2.264-1.813-3.366
	c-2.06-3.561-4.46-6.915-7.167-10.044l11.292-7.501c3.254,3.735,6.129,7.751,8.578,12.022c0.634,1.104,1.234,2.229,1.811,3.367
	c2.158,4.272,3.904,8.776,5.186,13.496L55.425,43.527z M83.038,32.502c-1.345-4.152-3.004-8.151-4.957-11.984
	c-0.579-1.137-1.177-2.262-1.807-3.369c-2.517-4.424-5.434-8.611-8.706-12.539l22.14,3.872L83.038,32.502z"/>
</svg>
